<svg xmlns="http://www.w3.org/2000/svg" xmlns:xlink="http://www.w3.org/1999/xlink" version="1.1" x="0px" y="0px" viewBox="0 0 100 100" enable-background="new 0 0 100 100" xml:space="preserve"><path fill="#508b46" d="M46.841,0.179c0.594,0.006,1.167-0.201,1.763-0.177c1.972,0.022,3.949-0.058,5.916,0.089    c1.252,0.244,2.553,0.217,3.77,0.631c2.162,0.218,4.195,1.032,6.223,1.758c0.398,0.186,0.781,0.409,1.207,0.529    c1.131,0.508,2.178,1.179,3.253,1.795c3.336,2.18,6.121,5.162,8.175,8.569c0.339,0.66,0.749,1.281,1.096,1.938    c0.792,1.809,1.645,3.61,2.094,5.544c0.383,1.026,0.51,2.113,0.765,3.172c0.153,0.73,0.266,1.471,0.323,2.214    c0.055,0.698-0.011,1.41,0.189,2.089c0.011,1.662,0.042,3.328-0.077,4.985c-0.171,0.888-0.224,1.795-0.432,2.675    c-0.09,0.463-0.093,0.94-0.246,1.39c-0.193,0.591-0.2,1.226-0.418,1.81c-0.464,1.339-0.83,2.714-1.378,4.024    c-0.469,1.053-0.903,2.122-1.434,3.146c-2.195,4.23-4.831,8.222-6.9,12.52c-0.476,1.029-0.965,2.059-1.301,3.145    c-0.43,1.436-0.771,2.902-0.905,4.396c-0.196,1.078-0.093,2.189-0.354,3.258c-0.126,0.615-0.143,1.258-0.365,1.854    c-0.248,0.562-0.307,1.189-0.6,1.734c-0.586,1.24-1.394,2.439-2.594,3.152c-0.303,0.184-0.637,0.305-0.949,0.469    c0.291,0.605,0.313,1.305,0.199,1.959c-0.125,0.668-0.581,1.211-1.113,1.607c0.219,0.293,0.552,0.482,0.739,0.803    c0.47,0.68,0.521,1.561,0.351,2.346c-0.15,0.639-0.602,1.141-1.104,1.533c0.721,0.547,1.256,1.395,1.186,2.328    c0.072,0.934-0.453,1.803-1.189,2.34c0.711,0.506,1.228,1.328,1.189,2.223c0.09,1.031-0.486,2.08-1.423,2.529    c-0.702,0.391-1.524,0.211-2.288,0.264c-1.027,1.676-2.518,3.07-4.281,3.943c-2.169,1.109-4.678,1.395-7.078,1.16    c-1.915-0.201-3.814-0.879-5.291-2.139c-0.958-0.797-1.718-1.824-2.233-2.955c-0.459-0.041-0.92,0.002-1.38-0.027    c-1.044-0.113-1.955-0.947-2.179-1.971c-0.154-0.732-0.087-1.545,0.325-2.186c0.203-0.338,0.513-0.59,0.805-0.848    c-0.825-0.572-1.312-1.566-1.196-2.572c0.025-0.854,0.534-1.596,1.204-2.09c-1.228-0.775-1.564-2.537-0.842-3.762    c0.204-0.369,0.552-0.615,0.843-0.904c-1.178-0.725-1.498-2.328-0.97-3.551c-0.898-0.141-1.659-0.697-2.319-1.289    c-1.441-1.545-1.934-3.686-2.174-5.719c-0.06-1.801-0.2-3.598-0.461-5.379c-0.643-2.875-1.965-5.545-3.53-8.027    c-0.782-1.385-1.701-2.686-2.487-4.07c-1.409-2.354-2.778-4.748-3.82-7.291c-0.502-0.947-0.721-2.003-1.114-2.995    c-0.54-1.484-0.867-3.034-1.249-4.565c-0.103-0.513-0.085-1.042-0.223-1.55c-0.181-0.679-0.204-1.385-0.281-2.081    c-0.178-0.884-0.142-1.792-0.152-2.689c0.019-1.517-0.08-3.043,0.166-4.547c0.594-5.6,2.657-11.077,6.118-15.541    c0.91-1.257,2.019-2.348,3.121-3.434c1.057-0.989,2.208-1.877,3.409-2.682c1.049-0.691,2.117-1.361,3.266-1.873    c1.799-0.927,3.713-1.617,5.659-2.166c0.692-0.113,1.35-0.378,2.052-0.44C44.879,0.395,45.852,0.185,46.841,0.179z M47.956,1.898    c-0.665,0.126-1.351,0.048-2.016,0.174c-0.434,0.089-0.874,0.122-1.312,0.177c-2.433,0.565-4.88,1.199-7.118,2.338    c-1.183,0.465-2.243,1.171-3.313,1.843c-1.441,0.987-2.818,2.087-4.016,3.364c-3.352,3.309-5.722,7.547-7.021,12.06    c-0.501,1.412-0.695,2.905-0.951,4.375c-0.075,1.093-0.291,2.176-0.271,3.277c0.016,1.486-0.06,2.987,0.212,4.457    c0.113,0.899,0.18,1.811,0.446,2.684c0.197,0.939,0.268,1.911,0.602,2.815c0.4,1.235,0.726,2.495,1.213,3.7    c0.456,1.099,0.86,2.222,1.404,3.283c1.372,2.86,3.143,5.503,4.771,8.221c0.525,0.752,0.905,1.588,1.409,2.352    c0.557,0.982,1.041,2.004,1.537,3.018c0.444,1.223,0.957,2.428,1.22,3.705c0.292,1.748,0.411,3.518,0.483,5.287    c0.209,1.543,0.384,3.152,1.161,4.537c0.465,0.859,1.332,1.459,2.276,1.678c1.197,0.256,2.431,0.057,3.639,0.213    c2.088,0.033,4.18-0.014,6.269,0.023c-0.548-6.777-0.559-13.639,0.559-20.361c0.077-0.31-0.119-0.588-0.229-0.862    c-0.449-1.05-1.009-2.043-1.607-3.013c-0.292,0.129-0.52,0.359-0.787,0.528c-1.24,0.849-2.714,1.427-4.233,1.394    c-2.006,0.018-3.87-0.979-5.359-2.254c-2.24-1.929-3.879-4.447-5.255-7.038c-2.156-4.182-3.645-8.701-4.488-13.327    c0.382-0.009,0.759,0.054,1.138,0.1c2.727,0.349,5.413,0.999,8.011,1.896c3.674,1.292,7.242,3.043,10.241,5.555    c0.385,0.302,0.701,0.686,1.112,0.955c0.002-1.528,0.16-3.058,0.548-4.539c0.87-3.41,2.741-6.488,5.02-9.14    c2.331-2.714,5.094-5.03,8.028-7.066c2.236-1.54,4.58-2.928,7.022-4.118c0.128-0.072,0.27-0.109,0.412-0.14    c1.747,2.636,2.508,5.798,2.757,8.917c0.249,3.335-0.078,6.7-0.829,9.954c-0.968,4.062-2.588,8.038-5.194,11.331    c-1.543,1.927-3.493,3.606-5.827,4.482c-1.901,0.729-4.021,0.836-5.994,0.355c-0.263-0.054-0.517-0.165-0.789-0.15    c-0.604,1.798-1.059,3.645-1.404,5.51c-0.048,0.176,0.002,0.352,0.065,0.519c0.441,1.208,0.789,2.452,1.058,3.71    c1.16,5.514,0.957,11.236,0.029,16.768c2.731,0.053,5.465,0.004,8.197,0.023c1.207,0.027,2.461-0.311,3.364-1.141    c1.263-1.152,1.775-2.857,2.085-4.484c0.07-0.566,0.27-1.111,0.268-1.686c0.039-1.262,0.273-2.502,0.395-3.756    c0.039-0.275,0.158-0.535,0.184-0.812c0.066-0.941,0.436-1.826,0.718-2.719c0.255-0.828,0.688-1.582,1.005-2.387    c0.547-1.244,1.269-2.398,1.907-3.596c0.896-1.736,1.895-3.414,2.83-5.126c0.996-1.55,1.831-3.195,2.686-4.825    c0.698-1.513,1.42-3.021,1.948-4.604c0.181-0.528,0.283-1.079,0.477-1.602c0.602-1.808,0.789-3.711,1.089-5.581    c0.082-1.328,0.075-2.659,0.072-3.989c-0.005-0.436-0.2-0.845-0.15-1.286c0.031-1.139-0.21-2.256-0.298-3.385    c-0.454-1.77-0.819-3.575-1.493-5.28c-0.513-1.219-1.015-2.446-1.645-3.61c-0.914-1.646-1.978-3.211-3.193-4.652    c-1.55-1.857-3.428-3.417-5.433-4.759c-0.714-0.424-1.438-0.835-2.164-1.234c-3.318-1.635-6.945-2.591-10.615-2.993    c-0.742-0.185-1.519-0.064-2.256-0.267C51.023,1.619,49.467,1.571,47.956,1.898z M62.903,22.499    c-1.823,1.817-3.536,3.75-5.065,5.822c-1.828,2.496-3.435,5.201-4.363,8.167c-0.68,2.167-0.939,4.508-0.475,6.748    c0.076,0.198,0.088,0.551,0.365,0.556c0.043-0.971,0.031-1.946,0.173-2.91c0.411-3.268,1.579-6.401,3.118-9.298    c2.174-4.072,5.111-7.686,8.318-10.983C64.238,21.18,63.588,21.861,62.903,22.499z M30.709,34.56    c0.451,0.313,0.972,0.494,1.468,0.718c2.782,1.295,5.462,2.854,7.813,4.839c2.337,1.965,4.376,4.387,5.496,7.258    c0.075,0.121,0.106,0.37,0.301,0.338c0.22-0.293,0.07-0.68,0.015-1.004c-0.573-2.541-2.282-4.652-4.219-6.316    c-2.882-2.442-6.291-4.193-9.808-5.531C31.434,34.719,31.071,34.632,30.709,34.56z M50.176,47.824    c-0.36,0.673-0.776,1.328-1.319,1.87c0.345,0.537,0.641,1.121,1.04,1.619c0.233-0.753,0.404-1.524,0.653-2.273    c0.09-0.327,0.26-0.639,0.266-0.984C50.598,48.002,50.401,47.784,50.176,47.824z M50.641,60.188    c-0.38,4.666-0.397,9.367,0.015,14.031c0.26-2.328,0.553-4.66,0.553-7.01C51.22,64.861,51.119,62.49,50.641,60.188z     M52.666,80.002c2.392,0.035,4.785,0.002,7.178,0.016c0.397-0.004,0.818,0.039,1.184-0.152c0.711-0.342,1.072-1.166,1.084-1.922    c-2.16-0.02-4.32,0-6.482-0.01c-0.346,0-0.699-0.016-1.033,0.086C53.66,78.277,52.953,79.094,52.666,80.002z M52.938,83.953    c-0.103,0.209-0.289,0.424-0.235,0.672c2.302-0.02,4.605-0.006,6.906-0.01c0.475-0.006,0.98,0.041,1.421-0.172    c0.718-0.34,1.063-1.178,1.083-1.934c-2.279-0.016-4.557-0.004-6.834-0.006C54.292,82.477,53.41,83.119,52.938,83.953z     M52.701,89.188c2.568-0.02,5.137,0.006,7.705-0.012c1.053-0.023,1.714-1.117,1.705-2.078c-2.279-0.01-4.558,0-6.836-0.006    C54.07,87.051,52.933,88.037,52.701,89.188z M52.699,93.754c2.575-0.016,5.15,0,7.725-0.008c1.047-0.023,1.699-1.127,1.688-2.082    c-2.279-0.01-4.557,0-6.834-0.006C54.072,91.631,52.953,92.607,52.699,93.754z"></path></svg>